<svg version="1.1" id="arrow-slider" xmlns="http://www.w3.org/2000/svg" xmlns:xlink="http://www.w3.org/1999/xlink" x="0px" y="0px"
	 viewBox="0 0 55 55" style="enable-background:new 0 0 55 55;" xml:space="preserve">
<path d="M33.2,28.3l-8.8,8.8c-0.4,0.4-1.1,0.4-1.5,0l-1-1c-0.4-0.4-0.4-1.1,0-1.5l7-7l-7-7c-0.4-0.4-0.4-1.1,0-1.5l1-1
	c0.4-0.4,1.1-0.4,1.5,0l8.8,8.8C33.6,27.2,33.6,27.8,33.2,28.3z"/>
<path d="M27.5,55C12.3,55,0,42.7,0,27.5S12.3,0,27.5,0S55,12.3,55,27.5S42.7,55,27.5,55z M27.5,5C15.1,5,5,15.1,5,27.5
	S15.1,50,27.5,50S50,39.9,50,27.5S39.9,5,27.5,5z"/>
</svg>
